<?xml version="1.0" encoding="UTF-8"?>
<svg width="14px" height="14px" viewBox="0 0 14 14" version="1.1" xmlns="http://www.w3.org/2000/svg" xmlns:xlink="http://www.w3.org/1999/xlink">
    <title>pluginIcon</title>
    <g id="Page-1" stroke="none" stroke-width="1" fill="none" fill-rule="evenodd">
        <g id="pluginIcon" fill-rule="nonzero">
            <rect id="Rectangle" fill="#F2F2F2" x="0" y="0" width="14" height="14" rx="3"></rect>
            <path d="M2.81554694,2.32013509 C2.25507144,2.87229545 2.21444929,2.93956301 2.21444929,3.31587823 L2.21444929,3.60435418 L1.96261951,3.57575923 C1.730729,3.549413 1.69043734,3.56454336 1.45312136,3.76709561 C0.796336947,4.3277234 0.836050262,4.61342314 1.68704986,5.44997845 C2.21968198,5.97357161 2.51395158,6.05671906 2.81714428,5.76924257 C2.9056868,5.68526221 3.05418485,5.55436391 3.14710628,5.47835132 C3.29279523,5.35916861 3.3160669,5.30375547 3.3160669,5.07580089 C3.3160669,4.81544793 3.55492513,4.67258418 3.67169659,4.86308769 C3.68912971,4.89148832 3.84550432,4.9321598 4.01922942,4.95345333 C4.19292698,4.97474686 4.39702917,5.02416338 4.47276537,5.06322466 C4.63343631,5.1461778 6.0726997,6.58039551 6.28170412,6.8658454 C6.35994651,6.97272949 6.52405998,7.17347721 6.64636708,7.31192678 C6.76870172,7.45040415 6.98032246,7.69915254 7.11664763,7.86472567 C7.25297282,8.0303266 7.43118698,8.241846 7.51267916,8.33479351 C7.94638601,8.8295696 8.66185912,9.65826824 8.87923581,9.91762174 C9.54334596,10.7100353 10.4596164,11.7304589 10.6241981,11.8609686 C11.2199529,12.3333684 12.2484506,11.5073072 11.9452854,10.799929 C11.8432757,10.5618967 11.8139726,10.5327465 8.54875052,7.42080975 C5.71558282,4.72061261 5.35405948,4.31256532 5.35405948,3.81506851 C5.35405948,3.6040488 5.21464977,3.09336502 5.14103415,3.03467596 C5.0880188,2.99242204 4.9133298,2.59584048 4.91399076,2.51918933 C4.91429371,2.48204364 4.97722362,2.40170013 5.05384112,2.34062352 C5.13043108,2.2795469 5.25722729,2.1738566 5.33555228,2.10572841 C5.41387731,2.03762799 5.56163177,1.95139891 5.66388942,1.91411441 C5.76611955,1.87685768 6.29944015,1.66903062 6.72031314,1.61636592 C6.92802923,1.55323541 7.01983069,1.47351192 6.99571757,1.37719545 C6.97160442,1.28087897 6.83749167,1.19159607 6.59337927,1.10934673 C6.15897367,1 5.44183086,0.982723805 5.21635726,1.01373407 C4.13082329,1.16306639 3.81639407,1.3341642 2.81554694,2.32013509 Z" id="path0-path" fill="#C44536"></path>
        </g>
    </g>
</svg>