<?xml version="1.0" encoding="UTF-8"?>
<svg width="16px" height="16px" viewBox="0 0 16 16" version="1.1" xmlns="http://www.w3.org/2000/svg" xmlns:xlink="http://www.w3.org/1999/xlink">
    <title>Combined Shape</title>
    <g id="Page-1" stroke="none" stroke-width="1" fill="none" fill-rule="evenodd">
        <g id="Group" fill="#C44536">
            <path d="M8,0 C12.418278,0 16,3.581722 16,8 C16,12.418278 12.418278,16 8,16 C3.581722,16 0,12.418278 0,8 C0,3.581722 3.581722,0 8,0 Z M6.64126516,2.41398378 C5.53599419,2.56603123 5.21584809,2.74023991 4.19680374,3.74413755 C3.62613778,4.30633718 3.58477704,4.37482779 3.58477704,4.75798512 L3.58477704,5.05170609 L3.32836853,5.02259122 C3.09226184,4.99576597 3.0512376,5.01117141 2.80960679,5.21740644 C2.14088084,5.78822747 2.18131622,6.07912176 3.04778853,6.93088714 C3.59010487,7.46400017 3.88972482,7.54865943 4.19843012,7.25595606 C4.2885825,7.1704488 4.43978052,7.03717054 4.53439145,6.95977587 C4.68272926,6.83842623 4.70642406,6.78200557 4.70642406,6.54990636 C4.70642406,6.28481972 4.94962517,6.13935844 5.06851975,6.33332566 C5.08626982,6.36224266 5.24548761,6.40365361 5.42237135,6.4253343 C5.59922704,6.44701498 5.80704019,6.49733 5.88415342,6.53710147 C6.04774564,6.62156286 7.51317746,8.08185726 7.72598194,8.37249715 C7.80564692,8.48132457 7.97274429,8.68572226 8.09727515,8.8266891 C8.22183405,8.96768421 8.43730244,9.22095531 8.57610626,9.38953888 C8.71491008,9.55815071 8.89636452,9.77351594 8.97933836,9.8681534 C9.42093079,10.3719254 10.1494125,11.2156913 10.3707415,11.4797603 C11.0469264,12.2865814 11.9798563,13.3255582 12.1474304,13.4584407 C12.7540171,13.9394297 13.8012148,13.0983492 13.4925375,12.3781095 L13.4788318,12.3467609 L13.4788318,12.3467609 L13.464229,12.3161676 C13.4225148,12.234023 13.3523031,12.1411034 13.1021699,11.8867605 L12.9414956,11.7256745 C12.4974705,11.2854368 11.6596024,10.4866047 10.0342474,8.93755174 C7.14956754,6.18826012 6.78147103,5.77279377 6.78147103,5.26625158 C6.78147103,5.05139516 6.6395266,4.53142621 6.56457254,4.47167007 C6.51059328,4.4286479 6.3327281,4.02485576 6.33340109,3.94681095 C6.33370955,3.90898989 6.39778363,3.82718559 6.47579418,3.76499849 C6.55377669,3.70281139 6.68287826,3.59519945 6.76262736,3.52583256 C6.84237647,3.45649395 6.99281737,3.36869707 7.09693426,3.33073468 C7.2010231,3.29280055 7.74404046,3.08119481 8.1725657,3.02757257 C8.38405843,2.96329424 8.47752902,2.88212123 8.45297746,2.78405355 C8.4284259,2.68598587 8.29187472,2.59507963 8.04332393,2.51133485 C7.60102005,2.4 6.87083826,2.38240969 6.64126516,2.41398378 Z" id="Combined-Shape"></path>
        </g>
    </g>
</svg>