<?xml version="1.0" encoding="UTF-8"?>
<svg width="12px" height="12px" viewBox="0 0 12 12" version="1.1" xmlns="http://www.w3.org/2000/svg">
    <title>Inherited Member</title>
    <g id="Page-1" stroke="none" stroke-width="1" fill="none" fill-rule="evenodd">
        <g id="Inherited-Member" fill-rule="nonzero">
            <circle id="Oval" fill-opacity="0.7" fill="#B99BF8" cx="4" cy="6" r="4"></circle>
            <polygon id="Path" fill="#DB5860"
                     transform="translate(9.500000, 6.000000) scale(-1, 1) rotate(-180.000000) translate(-9.500000, -6.000000) "
                     points="10 9 12 9 9.5 12 7 9 9 9 9 0 10 0"></polygon>
            <path d="M6.1969988,5.69982 C6.19639856,5.25042 5.98267217,4.5 4.99017312,4.5 C4.46833352,4.5 4.19543818,4.80102 4.16002401,4.85982 C3.97096661,4.61628973 3.7671766,4.5 3.2605042,4.5 C2.97955686,4.5 2.75946883,4.5597862 2.6002401,4.6793586 L2.6002401,4.5 L2,4.5 L2,7.5 L2.6002401,7.5 C2.58023209,6.3936 2.58023209,5.79354 2.6002401,5.69982 C2.6302521,5.55924 2.6302521,5.09982 3.20048019,5.09982 C3.77070828,5.09982 3.80012005,5.42202 3.80072029,5.69982 L3.80072029,7.5 L4.40096038,7.5 L4.40096038,5.69982 C4.40096038,5.51142 4.37642228,5.09982 4.99017312,5.09982 C5.60392396,5.09982 5.60392396,5.54358709 5.60426153,5.69982 C5.60426153,6.1740713 5.60426153,6.52975978 5.60426153,6.76688543 C5.60426153,6.92979978 5.60426153,7.1741713 5.60426153,7.5 L6.2,7.5 L6.1969988,5.69982 Z"
                  id="Path" fill-opacity="0.7" fill="#231F20"></path>
        </g>
    </g>
</svg>