<?xml version="1.0" encoding="UTF-8"?>
<svg width="15px" height="15px" viewBox="0 0 15 15" version="1.1" xmlns="http://www.w3.org/2000/svg" xmlns:xlink="http://www.w3.org/1999/xlink">
    <title>Member</title>
    <g id="Page-1" stroke="none" stroke-width="1" fill="none" fill-rule="evenodd">
        <g id="Member" fill-rule="nonzero">
            <path d="M15,7.5 C15,11.6421429 11.6421429,15 7.5,15 C3.35785714,15 0,11.6421429 0,7.5 C0,3.35785714 3.35785714,0 7.5,0 C11.6421429,0 15,3.35785714 15,7.5" id="Path" fill-opacity="0.6" fill="#B99BF8"></path>
            <path d="M10.994998,6.9997 C10.9939976,6.2507 10.637787,5 8.98362187,5 C8.11388921,5 7.65906363,5.5017 7.60004002,5.5997 C7.28494435,5.19381621 6.94529433,5 6.10084034,5 C5.63259477,5 5.26578138,5.09964367 5.00040016,5.298931 L5.00040016,5 L4,5 L4,10 L5.00040016,10 C4.96705349,8.156 4.96705349,7.1559 5.00040016,6.9997 C5.05042017,6.7654 5.05042017,5.9997 6.00080032,5.9997 C6.95118047,5.9997 7.00020008,6.5367 7.00120048,6.9997 L7.00120048,10 L8.00160064,10 L8.00160064,6.9997 C8.00160064,6.6857 7.9607038,5.9997 8.98362187,5.9997 C10.0065399,5.9997 10.0065399,6.73931181 10.0071026,6.9997 C10.0071026,7.79011884 10.0071026,8.38293296 10.0071026,8.77814238 C10.0071026,9.0496663 10.0071026,9.45695217 10.0071026,10 L11,10 L10.994998,6.9997 Z" id="Path" fill-opacity="0.7" fill="#231F20"></path>
        </g>
    </g>
</svg>