<?xml version="1.0" encoding="UTF-8"?>
<svg width="40px" height="40px" viewBox="0 0 40 40" version="1.1" xmlns="http://www.w3.org/2000/svg" xmlns:xlink="http://www.w3.org/1999/xlink">
    <title>Smithy</title>
    <g id="Page-1" stroke="none" stroke-width="1" fill="none" fill-rule="evenodd">
        <g id="Group">
            <rect id="Rectangle" fill="#F2F2F2" x="0" y="0" width="40" height="40" rx="8"></rect>
            <path d="M9.14799904,7.82976444 C7.50937249,9.43665539 7.3906081,9.63241671 7.3906081,10.7275651 L7.3906081,11.5670846 L6.65434939,11.4838679 C5.97638587,11.4071954 5.8585877,11.4512276 5.16476209,12.0406929 C3.24456329,13.6722257 3.36067058,14.5036659 5.84868396,16.9381999 C7.40590657,18.4619549 8.26624388,18.7039297 9.15266909,17.8673188 C9.41153521,17.6229201 9.84568952,17.2419813 10.117358,17.0207703 C10.5432995,16.6739261 10.6113374,16.5126634 10.6113374,15.8492725 C10.6113374,15.0915962 11.309672,14.6758357 11.6510693,15.2302369 C11.7020374,15.3128881 12.1592199,15.4312498 12.6671289,15.493218 C13.1749574,15.5551862 13.771678,15.6989976 13.9931031,15.8126733 C14.4628465,16.0540826 18.6707293,20.2279271 19.2817822,21.0586402 C19.5105345,21.3696931 19.9903426,21.9539069 20.3479241,22.3568213 C20.7055861,22.7598166 21.3242882,23.4837214 21.7228534,23.9655705 C22.1214187,24.4475005 22.6424521,25.0630619 22.8807056,25.3335567 C24.1487067,26.7734486 26.2404899,29.1851182 26.8760203,29.9398859 C28.8176369,32.245959 31.4964785,35.2155846 31.9776555,35.5953923 C33.7194259,36.9701651 36.7263792,34.5661709 35.8400345,32.5075666 C35.541795,31.8148478 35.4561236,31.7300152 25.9098015,22.6736913 C17.6266494,14.8156075 16.5696866,13.6281128 16.5696866,12.1803031 C16.5696866,11.5661959 16.1621033,10.0800096 15.946878,9.90921335 C15.7918804,9.78624648 15.2811533,8.63211921 15.2830857,8.40904988 C15.2839714,8.30094892 15.4679556,8.06713412 15.6919573,7.88938964 C15.9158785,7.71164515 16.2865845,7.4040664 16.5155783,7.2058005 C16.7445722,7.0076154 17.1765525,6.7566725 17.4755167,6.64816757 C17.7744004,6.53974343 19.3336359,5.93492742 20.5641155,5.7816632 C21.1714018,5.5979415 21.4397959,5.36593108 21.3692979,5.08563195 C21.2987998,4.80533281 20.9067029,4.54550269 20.193007,4.30614158 C18.922963,3.98792193 16.8262982,3.93764494 16.1670954,4.02789067 C12.9933888,4.46247594 12.0741121,4.96040288 9.14799904,7.82976444 Z" id="path0-path" fill="#C44536"></path>
        </g>
    </g>
</svg>