<?xml version="1.0" encoding="UTF-8"?>
<svg width="15px" height="15px" viewBox="0 0 15 15" version="1.1" xmlns="http://www.w3.org/2000/svg">
    <title>Resource Property</title>
    <g id="Page-1" stroke="none" stroke-width="1" fill="none" fill-rule="evenodd">
        <g id="Resource-Property" fill-rule="nonzero">
            <path d="M15,7.5 C15,11.6421429 11.6421429,15 7.5,15 C3.35785714,15 0,11.6421429 0,7.5 C0,3.35785714 3.35785714,0 7.5,0 C11.6421429,0 15,3.35785714 15,7.5"
                  id="Path" fill-opacity="0.6" fill="#B99BF8"></path>
            <path d="M6.497,6.8021 C6.497,7.83569336 6.73815513,8.8771 8.035,8.8771 C9.33184487,8.8771 9.4996,7.4641 9.4996,6.7921 C9.4996,6.1061 9.40188271,4.7461 8.024,4.7461 C6.64611729,4.7461 6.497,5.76850664 6.497,6.8021 Z M6.4996,9 C6.5076,9.074 6.50673333,10.074 6.497,12 L5.5,12 L5.5,4.0001 L6.497,4.0001 L6.497,4.7461 C6.86653099,4.24876667 7.43953099,4.0001 8.216,4.0001 C9.38070352,4.0001 10.5,4.57818603 10.5,6.8021 C10.5,9.02601396 9.15414102,9.6231 8.216,9.6231 C7.59057266,9.6231 7.01843932,9.4154 6.4996,9 Z"
                  id="Shape" fill-opacity="0.7" fill="#231F20"></path>
        </g>
    </g>
</svg>