<?xml version="1.0" encoding="UTF-8"?>
<svg width="15px" height="15px" viewBox="0 0 15 15" version="1.1" xmlns="http://www.w3.org/2000/svg" xmlns:xlink="http://www.w3.org/1999/xlink">
    <title>static</title>
    <g id="Page-1" stroke="none" stroke-width="1" fill="none" fill-rule="evenodd">
        <g id="static" fill-rule="nonzero">
            <path d="M15,7.5 C15,11.6421429 11.6421429,15 7.5,15 C3.35785714,15 0,11.6421429 0,7.5 C0,3.35785714 3.35785714,0 7.5,0 C11.6421429,0 15,3.35785714 15,7.5" id="Path" fill-opacity="0.6" fill="#40B6E0"></path>
            <path d="M7.66428571,10.7142857 C6.70892857,10.7142857 5.80714286,10.3839286 5.05714286,9.71428572 L5.71785715,8.92857143 C6.31607143,9.44642857 6.92321429,9.74107143 7.69107143,9.74107143 C8.36964286,9.74107143 8.79821429,9.41964286 8.79821429,8.95535714 L8.79821429,8.9375 C8.79821429,8.49107143 8.54821428,8.25 7.3875,7.98214286 C6.05714286,7.66071429 5.30714286,7.26785714 5.30714286,6.11607142 L5.30714286,6.09821429 C5.30714286,5.02678571 6.2,4.28571429 7.44107143,4.28571429 C8.35178571,4.28571429 9.075,4.5625 9.70892857,5.07142857 L9.11964286,5.90178571 C8.55714286,5.48214286 7.99464286,5.25892857 7.42321428,5.25892857 C6.78035714,5.25892857 6.40535714,5.58928572 6.40535714,6 L6.40535714,6.01785715 C6.40535714,6.5 6.69107143,6.71428572 7.89642857,7 C9.21785714,7.32142857 9.89642857,7.79464286 9.89642857,8.83035715 L9.89642857,8.84821428 C9.89642857,10.0178571 8.97678571,10.7142857 7.66428571,10.7142857 Z" id="Path" fill-opacity="0.7" fill="#231F20"></path>
        </g>
    </g>
</svg>